<svg xmlns="http://www.w3.org/2000/svg" xmlns:xlink="http://www.w3.org/1999/xlink" width="20px" height="30px" viewBox="0 0 20 30" preserveAspectRatio="xMidYMid meet"  ><rect id="svgEditorBackground" x="0" y="0" width="1340" height="820" style="fill: none; stroke: none;"/><defs id="svgEditorDefs"><polygon id="svgEditorShapeDefs" style="fill:khaki;stroke:black;vector-effect:non-scaling-stroke;stroke-width:1px;"/></defs><g transform="matrix(1.07031 0 0 1.07031 -27.8509 7)" style="fill:khaki; stroke:black; vector-effect:non-scaling-stroke;stroke-width:1px;" id="e3_shape"><path d="M80,16c0,8.837,-7.162999999999997,16,-16,16s-16,-7.163,-16,-16c0,-8.836,7.162999999999997,-16,16,-16s16,7.163,16,16Z"/><path d="M57.778,128h12.445c5.400000000000006,0,9.778000000000006,-4.378,9.778000000000006,-9.778000000000006v-22.221999999999994h4.725999999999999c5.950000000000003,0,10.521,-5.269999999999996,9.679000000000002,-11.161000000000001l-5.206000000000003,-36.444c-0.6880000000000024,-4.817,-4.813000000000002,-8.394999999999996,-9.679000000000002,-8.394999999999996h-31.04c-4.866,0,-8.991,3.578000000000003,-9.679000000000002,8.394999999999996l-5.205999999999996,36.444c-0.8420000000000059,5.891000000000005,3.728999999999992,11.161000000000001,9.678999999999995,11.161000000000001h4.725999999999999v22.22200000000001c0,5.400000000000006,4.378,9.777999999999992,9.777999999999999,9.777999999999992Z"/></g><g transform="matrix(0.22306 0 0 0.22306 -7.00099 0.534556)" style="fill:khaki; stroke:black; vector-effect:non-scaling-stroke;stroke-width:1px;" id="e4_shape"><path d="M80 16c0 8.837-7.163 16-16 16s-16-7.163-16-16c0-8.836 7.163-16 16-16s16 7.163 16 16z"/><path d="M57.778 128h12.445c5.4 0 9.778-4.378 9.778-9.778v-22.222h4.726c5.95 0 10.521-5.27 9.679-11.161l-5.206-36.444c-0.688-4.817-4.813-8.395-9.679-8.395h-31.040c-4.866 0-8.991 3.578-9.679 8.395l-5.206 36.444c-0.842 5.891 3.729 11.161 9.679 11.161h4.726v22.222c0 5.4 4.378 9.778 9.778 9.778z"/></g></svg>